<?xml version="1.0" encoding="UTF-8"?>
<!DOCTYPE svg PUBLIC "-//W3C//DTD SVG 1.1//EN" "http://www.w3.org/Graphics/SVG/1.1/DTD/svg11.dtd">
<!-- Creator: CorelDRAW 2021 (64-Bit) -->
<svg xmlns="http://www.w3.org/2000/svg" xml:space="preserve" width="185.696mm" height="184.151mm" version="1.1" style="shape-rendering:geometricPrecision; text-rendering:geometricPrecision; image-rendering:optimizeQuality; fill-rule:evenodd; clip-rule:evenodd"
viewBox="0 0 14680.84 14558.7"
 xmlns:xlink="http://www.w3.org/1999/xlink"
 xmlns:xodm="http://www.corel.com/coreldraw/odm/2003">
 <defs>
  <style type="text/css">
   <![CDATA[
    .fil0 {fill:#202329}
   ]]>
  </style>
 </defs>
 <g id="Capa_x0020_1">
  <metadata id="CorelCorpID_0Corel-Layer"/>
  <path class="fil0" d="M4381.85 11922.22c-114.63,-78.3 -103.5,-106.62 -188.75,-190.5 -230.59,-226.87 -347.27,-227.52 -266.5,-478.44 102.38,-318.07 348.06,-956.93 495.09,-1258.52 7.43,-15.23 19.59,-41.26 29.73,-57.15 21.15,-33.16 26.54,-32.86 45.49,-53.1 -35.64,168.35 -590.61,1381.93 -550.74,1546.12 16.44,67.71 436.99,397.02 526.09,536.11l-137.47 149.02c33.47,-78.73 47.78,-85.83 47.04,-193.54zm-3353.72 -4730.86c0,-2483.03 1419.02,-4701.38 3651.27,-5726.87 2407.51,-1106.01 5228.17,-560.89 7083.05,1274.86 947.52,937.75 1823.15,2422.76 1823.15,4368.33 0,1069.19 -238.84,2198.87 -706.41,3002.92 -417.44,717.82 -608.2,992.85 -1138.16,1511.33 -150.93,147.67 -267.07,281.39 -432.75,450.22l9.57 329.4c-63.8,-179.93 -104.21,-400.68 -175.15,-591.96 -68.31,-184.15 -236.75,-374.65 -269.31,-518.41 154.35,-182.72 394.74,-314.38 543.98,-522.76 83.69,-116.85 123.82,-191.68 272.03,-258.08 246.13,-110.26 423.64,-386.96 273.7,-636.3 -118.67,-197.35 -103.5,-137.48 -43.88,-388.26 88.15,-370.77 37.33,-561.37 2.25,-928.73 -40.78,-426.96 -65.94,-504.42 -245.29,-823.31 -108.59,-193.08 -306.66,-474.95 -426.33,-605.65 -223.06,-243.61 -955.02,-609.57 -1457.3,-609.57 -1246.29,0 -1797.42,419.06 -2451.27,1401.81 -87.87,132.05 -97.37,537.89 -174.27,773.25 -95.57,292.48 -122.08,472.54 30.52,730.06 311.91,526.33 1.31,259.25 -36.5,640.57 -28.55,287.83 201.77,469.45 478.99,483.61l-78.62 -293.76c138.47,164.04 194.19,373.23 361.11,564.03 758.49,866.97 1678.27,642.99 1937.94,778.16 -694.25,53.9 -966.99,-165.58 -1462.4,-249.28 -139.05,131.73 -323.88,558.63 -389.92,780.98 -95.77,322.49 -90.55,683.02 -166.12,1005.76 -81.94,-85.74 -258.01,-963.97 -288.83,-1080.48 -97.04,-366.85 -186.17,-720.51 -290.83,-1076.61 -343.65,-1169.2 -109.6,-1045.85 -821.14,-1241.53 -166.3,-45.74 -369.54,-121.69 -527.11,-146.87 42.9,121.83 122.34,204.67 184.24,293.49 75.86,108.86 119.7,165.69 187.1,287.35 109.93,198.46 208.85,408.59 301.89,617.6 58.27,130.9 266.8,556.01 197.73,702.83 -61.93,131.66 -342.4,296.77 -438.76,464.15 37.39,71.19 228.66,254.05 304.58,331.8 120.45,123.35 260.35,174.62 228.9,367.09 -171.25,-312.11 -398.37,-449.47 -615.41,-712.93 118.54,-168.5 455.53,-357.33 475.38,-544.09 27.24,-256.24 -612.84,-1453.3 -815.45,-1703.3 -100.05,-123.44 -175.25,-130.38 -157.45,-353.31 124.63,-169.09 349.26,-136.41 524.76,-376.4 140.61,-192.27 361.7,-238.89 577.69,-310.46 -58.94,-182.11 -206.24,-205.97 -209.32,-442.66l446.52 -76.63c-31.2,-174.78 -128.68,-332.03 -135.12,-495.13 153.93,-116.9 538.17,-191.87 672.78,-334.68 -129.32,-196.82 -563.88,-265.43 -665.03,-512.42 160.05,-84.8 442.9,-162.84 631.49,-247.74 185.64,-83.59 412.68,-210.35 532.92,-325.82 -268.17,-120.67 -583.78,-261.51 -859.36,-364.31 31.21,-136.4 283.06,-326.04 391.76,-416.14 69.68,-57.76 346.59,-346.62 393.47,-423.65l-1032.77 -169.45c92.85,-349 496.78,-781.14 587.46,-1113.87 -214.03,47.97 -897.79,368.87 -1037.21,312.03 -182.36,-219.94 -125.36,-984.51 -132.44,-1312.6 -499.74,154.01 -770.5,547.4 -1141.81,850.74 -128.26,-102.09 -280.9,-346.08 -402.42,-486.99l-317.36 -350.96c-52.84,-53.16 -53.02,-57.19 -125.61,-101.69 -78.42,486.34 -123.09,760.98 -273.67,1188.78 -270.21,-23.86 -752.9,-370.58 -1054.62,-310.3 109.73,349.33 320.64,597.65 294.42,1053.52l-1312.36 116.13c90.95,264.36 721.41,611.89 726.92,1030.24 -181.51,166.24 -757.17,487.28 -862.04,664.12 105.69,73.95 439.62,113.61 598.58,207.65 149.96,88.7 355.1,256.01 409.83,419.78 -112.93,90.13 -552.88,502.36 -585.69,624.19 226.49,113.27 509.87,162.54 728.55,268.47 45.01,182.2 -99.44,494.89 -120.22,712.92 232.8,23.29 400.94,-21.91 610.08,-26.2 51.52,138.04 64.5,331.21 87.18,500.33 123.6,-14.56 256.42,-66.74 333.87,-141.26 -52.33,-125.3 -150.12,-250.48 -220.04,-395.69 -178.09,-369.86 -378.63,-1063.16 -333.41,-1467.67 36.77,66.43 138.89,891.98 354.04,1364.19 300.92,660.46 362.33,504.72 876.42,834.09l-8.54 201.91c-252.57,66.32 -534.42,173.95 -793.16,260.21 -419.23,139.77 -426.14,49.28 -551.95,479.65 -100.82,344.91 -421.13,1333.58 -466.06,1613.29 -4.2,-7.76 -6.56,-18.23 -8.54,-25.05 -1.98,-6.8 -5.64,-16.8 -7.93,-25.16 -2.27,-8.33 -4.44,-16.21 -6.79,-25.38 -2.33,-9.1 -3.28,-16.18 -5.57,-25.46 -70.92,-286.79 -748.26,-739.12 -1251.42,-1874.46 -376.05,-848.52 -597.03,-1602.57 -597.03,-2671.55zm13626.82 697.25c192.6,-2382.12 -716.64,-4151.08 -1811.39,-5450.11 -68.05,-80.74 -165.93,-163.72 -237.29,-236.19l-473.24 -446.47c-1080.04,-952.8 -2667.74,-1611.31 -4180.61,-1731.77 -4179.64,-332.8 -7657.26,2835.02 -7930.56,6638.23 -117.05,1628.9 237.21,3081.61 1042.99,4403.63 703.78,1154.66 1632.69,1967.1 2826.09,2641.2 2355.68,1330.63 5677.29,1070.77 7810.94,-561.93 86.27,-66.01 160.57,-120.37 251.14,-194.97l482.83 -438.16c67.1,-75.13 148.02,-155.71 223.19,-223.02 381.38,-341.49 939.7,-1151.89 1164.12,-1570.2 457.11,-852.04 741.69,-1715.85 831.8,-2830.24z"/>
 </g>
</svg>
