<?xml version="1.0" encoding="UTF-8"?>
<!DOCTYPE svg PUBLIC "-//W3C//DTD SVG 1.1//EN" "http://www.w3.org/Graphics/SVG/1.1/DTD/svg11.dtd">
<!-- Creator: CorelDRAW 2021 (64-Bit) -->
<svg xmlns="http://www.w3.org/2000/svg" xml:space="preserve" width="185.696mm" height="184.151mm" version="1.1" style="shape-rendering:geometricPrecision; text-rendering:geometricPrecision; image-rendering:optimizeQuality; fill-rule:evenodd; clip-rule:evenodd"
viewBox="0 0 8104.28 8036.85"
 xmlns:xlink="http://www.w3.org/1999/xlink"
 xmlns:xodm="http://www.corel.com/coreldraw/odm/2003">
 <defs>
  <style type="text/css">
   <![CDATA[
    .fil0 {fill:#E65100}
   ]]>
  </style>
 </defs>
 <g id="Capa_x0020_1">
  <metadata id="CorelCorpID_0Corel-Layer"/>
  <path class="fil0" d="M2418.91 6581.43c-63.28,-43.22 -57.13,-58.86 -104.2,-105.16 -127.29,-125.24 -191.7,-125.6 -147.12,-264.11 56.52,-175.58 192.14,-528.26 273.31,-694.74 4.1,-8.41 10.81,-22.78 16.41,-31.55 11.67,-18.3 14.65,-18.14 25.11,-29.31 -19.67,92.93 -326.03,762.87 -304.02,853.5 9.08,37.38 241.23,219.17 290.42,295.95l-75.89 82.26c18.48,-43.46 26.38,-47.38 25.97,-106.84zm-1851.36 -2611.58c0,-1370.71 783.34,-2595.31 2015.61,-3161.41 1329.02,-610.55 2886.11,-309.63 3910.06,703.76 523.06,517.67 1006.43,1337.44 1006.43,2411.46 0,590.23 -131.84,1213.84 -389.96,1657.71 -230.44,396.26 -335.75,548.08 -628.3,834.3 -83.32,81.52 -147.43,155.34 -238.89,248.54l5.29 181.84c-35.22,-99.33 -57.53,-221.19 -96.69,-326.78 -37.71,-101.66 -130.69,-206.82 -148.67,-286.18 85.21,-100.87 217.9,-173.55 300.29,-288.58 46.2,-64.5 68.35,-105.82 150.17,-142.47 135.87,-60.87 233.86,-213.61 151.09,-351.26 -65.51,-108.94 -57.14,-75.89 -24.22,-214.33 48.66,-204.68 20.61,-309.89 1.24,-512.68 -22.51,-235.7 -36.4,-278.45 -135.41,-454.5 -59.94,-106.59 -169.29,-262.19 -235.35,-334.34 -123.14,-134.48 -527.2,-336.5 -804.47,-336.5 -687.99,0 -992.23,231.34 -1353.18,773.84 -48.5,72.9 -53.75,296.93 -96.2,426.85 -52.76,161.46 -67.39,260.86 16.85,403.01 172.18,290.55 0.72,143.11 -20.15,353.62 -15.76,158.89 111.38,259.15 264.42,266.97l-43.4 -162.17c76.44,90.55 107.2,206.03 199.35,311.36 418.71,478.59 926.45,354.95 1069.81,429.57 -383.24,29.76 -533.81,-91.41 -807.29,-137.61 -76.76,72.72 -178.79,308.38 -215.25,431.12 -52.87,178.03 -49.99,377.05 -91.7,555.21 -45.24,-47.33 -142.43,-532.14 -159.44,-596.46 -53.57,-202.51 -102.77,-397.75 -160.55,-594.32 -189.71,-645.44 -60.5,-577.34 -453.3,-685.36 -91.8,-25.25 -204,-67.18 -290.98,-81.08 23.68,67.25 67.54,112.98 101.7,162.01 41.88,60.1 66.08,91.47 103.28,158.63 60.69,109.56 115.29,225.55 166.65,340.93 32.17,72.26 147.28,306.93 109.15,387.98 -34.19,72.68 -189.01,163.83 -242.21,256.23 20.64,39.3 126.23,140.25 168.14,183.16 66.49,68.09 143.72,96.39 126.36,202.65 -94.53,-172.3 -219.91,-248.12 -339.72,-393.56 65.44,-93.02 251.46,-197.26 262.42,-300.35 15.04,-141.45 -338.31,-802.27 -450.16,-940.27 -55.23,-68.14 -96.74,-71.97 -86.92,-195.03 68.8,-93.34 192.8,-75.3 289.68,-207.79 77.62,-106.14 199.67,-131.88 318.9,-171.38 -32.54,-100.53 -113.85,-113.7 -115.55,-244.36l246.49 -42.3c-17.22,-96.49 -71.03,-183.29 -74.59,-273.33 84.98,-64.53 297.08,-105.92 371.4,-184.75 -71.39,-108.65 -311.28,-146.53 -367.12,-282.87 88.35,-46.81 244.5,-89.89 348.6,-136.76 102.48,-46.14 227.81,-116.12 294.19,-179.86 -148.04,-66.61 -322.26,-144.36 -474.39,-201.11 17.23,-75.3 156.26,-179.99 216.26,-229.72 38.47,-31.89 191.33,-191.35 217.21,-233.87l-570.12 -93.54c51.26,-192.66 274.23,-431.21 324.3,-614.89 -118.15,26.48 -495.6,203.63 -572.57,172.25 -100.67,-121.41 -69.2,-543.48 -73.11,-724.6 -275.87,85.02 -425.34,302.18 -630.31,469.63 -70.81,-56.36 -155.07,-191.05 -222.15,-268.83l-175.19 -193.74c-29.17,-29.35 -29.27,-31.57 -69.34,-56.14 -43.29,268.47 -67.95,420.09 -151.07,656.25 -149.16,-13.17 -415.63,-204.57 -582.19,-171.29 60.57,192.84 177.01,329.92 162.53,581.58l-724.46 64.11c50.21,145.94 398.24,337.78 401.28,568.72 -100.2,91.77 -417.98,268.99 -475.87,366.62 58.34,40.82 242.68,62.72 330.44,114.63 82.78,48.97 196.02,141.32 226.24,231.73 -62.34,49.75 -305.21,277.32 -323.32,344.57 125.03,62.53 281.46,89.73 402.19,148.21 24.85,100.58 -54.89,273.19 -66.36,393.55 128.51,12.86 221.33,-12.09 336.78,-14.46 28.44,76.2 35.61,182.84 48.12,276.2 68.23,-8.04 141.55,-36.84 184.31,-77.98 -28.89,-69.17 -82.87,-138.27 -121.47,-218.43 -98.31,-204.17 -209.02,-586.9 -184.05,-810.2 20.3,36.67 76.67,492.4 195.44,753.08 166.12,364.6 200.02,278.62 483.81,460.44l-4.71 111.46c-139.43,36.61 -295.02,96.03 -437.85,143.65 -231.43,77.16 -235.24,27.21 -304.69,264.78 -55.66,190.4 -232.48,736.18 -257.28,890.59 -2.32,-4.28 -3.62,-10.06 -4.71,-13.83 -1.09,-3.75 -3.12,-9.27 -4.38,-13.89 -1.25,-4.6 -2.45,-8.95 -3.75,-14.01 -1.29,-5.02 -1.81,-8.93 -3.08,-14.06 -39.15,-158.32 -413.06,-408.02 -690.82,-1034.76 -207.59,-468.4 -329.58,-884.67 -329.58,-1474.77l0 -0.03zm7522.42 384.9c106.32,-1315 -395.61,-2291.53 -999.94,-3008.63 -37.56,-44.57 -91.6,-90.38 -130.99,-130.39l-261.25 -246.47c-596.22,-525.98 -1472.67,-889.49 -2307.83,-955.99 -2307.29,-183.72 -4227.05,1565.02 -4377.91,3664.51 -64.62,899.21 130.95,1701.15 575.77,2430.94 388.51,637.41 901.29,1085.9 1560.09,1458.02 1300.41,734.55 3134.04,591.1 4311.88,-310.2 47.62,-36.44 88.64,-66.45 138.64,-107.63l266.53 -241.88c37.04,-41.47 81.71,-85.95 123.21,-123.11 210.53,-188.51 518.75,-635.87 642.63,-866.8 252.34,-470.35 409.44,-947.2 459.17,-1562.38l0 0.01z"/>
 </g>
</svg>
