<?xml version="1.0" encoding="UTF-8"?>
<!DOCTYPE svg PUBLIC "-//W3C//DTD SVG 1.1//EN" "http://www.w3.org/Graphics/SVG/1.1/DTD/svg11.dtd">
<!-- Creator: CorelDRAW 2021 (64-Bit) -->
<svg xmlns="http://www.w3.org/2000/svg" xml:space="preserve" width="185.696mm" height="184.151mm" version="1.1" style="shape-rendering:geometricPrecision; text-rendering:geometricPrecision; image-rendering:optimizeQuality; fill-rule:evenodd; clip-rule:evenodd"
viewBox="0 0 18569.58 18415.07"
 xmlns:xlink="http://www.w3.org/1999/xlink"
 xmlns:xodm="http://www.corel.com/coreldraw/odm/2003">
 <defs>
  <style type="text/css">
   <![CDATA[
    .fil0 {fill:#149ECA}
   ]]>
  </style>
 </defs>
 <g id="Capa_x0020_1">
  <metadata id="CorelCorpID_0Corel-Layer"/>
  <path class="fil0" d="M5542.56 15080.24c-145,-99.03 -130.9,-134.87 -238.76,-240.96 -291.66,-286.97 -439.25,-287.79 -337.1,-605.16 129.51,-402.31 440.26,-1210.42 626.24,-1591.88 9.39,-19.27 24.77,-52.2 37.6,-72.29 26.74,-41.93 33.57,-41.56 57.54,-67.16 -45.07,212.93 -747.04,1747.99 -696.61,1955.65 20.81,85.65 552.74,502.19 665.45,678.12l-173.89 188.49c42.34,-99.58 60.45,-108.56 59.51,-244.81l0.02 0zm-4242.08 -5983.99c0,-3140.75 1794.89,-5946.72 4618.43,-7243.84 3045.23,-1398.97 6613.03,-709.47 8959.24,1612.55 1198.5,1186.15 2306.07,3064.52 2306.07,5525.46 0,1352.4 -302.09,2781.3 -893.53,3798.35 -528.01,907.96 -769.31,1255.83 -1439.64,1911.66 -190.91,186.79 -337.81,355.94 -547.38,569.49l12.12 416.66c-80.7,-227.6 -131.82,-506.82 -221.55,-748.76 -86.41,-232.94 -299.45,-473.89 -340.65,-655.73 195.24,-231.13 499.28,-397.66 688.06,-661.23 105.86,-147.79 156.61,-242.47 344.09,-326.45 311.32,-139.47 535.85,-489.45 346.2,-804.85 -150.11,-249.62 -130.93,-173.89 -55.5,-491.1 111.5,-468.99 47.22,-710.06 2.84,-1174.72 -51.58,-540.07 -83.4,-638.02 -310.27,-1041.41 -137.34,-244.23 -387.9,-600.75 -539.27,-766.07 -282.15,-308.14 -1207.99,-771.03 -1843.31,-771.03 -1576.41,0 -2273.53,530.08 -3100.58,1773.11 -111.13,167.04 -123.16,680.37 -220.43,978.06 -120.89,369.96 -154.41,597.72 38.61,923.43 394.51,665.75 1.65,327.91 -46.17,810.26 -36.11,364.07 255.21,593.8 605.86,611.72l-99.44 -371.59c175.15,207.48 245.63,472.08 456.78,713.43 959.4,1096.61 2122.81,813.31 2451.29,984.29 -878.13,68.19 -1223.14,-209.45 -1849.77,-315.31 -175.88,166.63 -409.67,706.6 -493.21,987.84 -121.14,407.93 -114.54,863.95 -210.12,1272.17 -103.66,-108.45 -326.35,-1219.31 -365.33,-1366.69 -122.75,-464.02 -235.47,-911.38 -367.86,-1361.78 -434.69,-1478.92 -138.63,-1322.88 -1038.66,-1570.39 -210.34,-57.86 -467.43,-153.93 -666.73,-185.78 54.26,154.09 154.76,258.87 233.03,371.22 95.96,137.71 151.41,209.59 236.65,363.47 139.06,251.04 264.17,516.81 381.85,781.18 73.71,165.57 337.47,703.28 250.1,888.99 -78.34,166.53 -433.08,375.39 -554.98,587.11 47.29,90.05 289.23,321.36 385.26,419.68 152.35,156.02 329.31,220.86 289.53,464.34 -216.6,-394.8 -503.89,-568.53 -778.41,-901.78 149.94,-213.14 576.18,-451.99 601.29,-688.2 34.46,-324.11 -775.18,-1838.27 -1031.47,-2154.47 -126.55,-156.13 -221.66,-164.91 -199.16,-446.88 157.64,-213.87 441.77,-172.54 663.75,-476.12 177.85,-243.2 457.51,-302.18 730.71,-392.69 -74.56,-230.35 -260.87,-260.52 -264.76,-559.91l564.79 -96.92c-39.46,-221.09 -162.75,-419.98 -170.91,-626.29 194.72,-147.86 680.7,-242.7 850.99,-423.31 -163.58,-248.95 -713.24,-335.75 -841.18,-648.15 202.44,-107.26 560.22,-205.97 798.75,-313.36 234.82,-105.72 521.99,-266.07 674.09,-412.12 -339.21,-152.63 -738.4,-330.78 -1086.98,-460.81 39.48,-172.54 358.03,-412.42 495.51,-526.36 88.15,-73.07 438.4,-438.45 497.7,-535.87l-1306.32 -214.33c117.45,-441.45 628.34,-988.05 743.07,-1408.92 -270.72,60.67 -1135.57,466.58 -1311.94,394.68 -230.67,-278.19 -158.56,-1245.29 -167.52,-1660.3 -632.11,194.81 -974.6,692.39 -1444.25,1076.08 -162.25,-129.14 -355.32,-437.76 -509.02,-615.98l-401.42 -443.92c-66.84,-67.25 -67.07,-72.34 -158.88,-128.64 -99.19,615.15 -155.7,962.57 -346.15,1503.69 -341.78,-30.18 -952.35,-468.74 -1333.99,-392.48 138.79,441.86 405.59,755.96 372.41,1332.59l-1659.98 146.9c115.05,334.4 912.5,773.97 919.47,1303.13 -229.59,210.28 -957.73,616.35 -1090.38,840.05 133.68,93.53 556.06,143.71 757.15,262.66 189.68,112.21 449.15,323.81 518.39,530.97 -142.84,113.99 -699.34,635.42 -740.83,789.51 286.49,143.28 644.92,205.6 921.55,339.6 56.94,230.46 -125.77,625.97 -152.05,901.75 294.46,29.47 507.14,-27.7 771.67,-33.13 65.17,174.6 81.59,418.95 110.26,632.87 156.34,-18.42 324.34,-84.41 422.32,-178.68 -66.2,-158.49 -189.88,-316.82 -278.33,-500.5 -225.26,-467.82 -478.93,-1344.78 -421.72,-1856.43 46.51,84.02 175.68,1128.24 447.82,1725.55 380.64,835.42 458.31,638.41 1108.57,1055.02l-10.79 255.39c-319.48,83.89 -675.99,220.04 -1003.26,329.15 -530.28,176.8 -539.01,62.35 -698.15,606.7 -127.54,436.27 -532.69,1686.83 -589.51,2040.64 -5.32,-9.81 -8.29,-23.05 -10.79,-31.69 -2.5,-8.59 -7.15,-21.24 -10.04,-31.83 -2.86,-10.54 -5.61,-20.51 -8.59,-32.1 -2.96,-11.5 -4.15,-20.46 -7.06,-32.22 -89.71,-362.76 -946.46,-934.91 -1582.9,-2370.98 -475.66,-1073.26 -755.18,-2027.07 -755.18,-3379.18l0 -0.07 0.03 -0.05zm17236.34 881.92c243.61,-3013.09 -906.47,-5250.65 -2291.2,-6893.76 -86.06,-102.12 -209.89,-207.09 -300.14,-298.77l-598.61 -564.74c-1366.14,-1205.2 -3374.38,-2038.12 -5288.01,-2190.49 -5286.76,-420.96 -9685.56,3585.98 -10031.23,8396.61 -148.07,2060.38 300.05,3897.89 1319.28,5570.08 890.21,1460.52 2065.16,2488.16 3574.68,3340.81 2979.67,1683.1 7181.12,1354.41 9879.93,-710.77 109.11,-83.5 203.1,-152.26 317.67,-246.62l610.71 -554.23c84.87,-95.02 187.22,-196.94 282.32,-282.09 482.39,-431.94 1188.63,-1456.99 1472.48,-1986.13 578.19,-1077.73 938.16,-2170.35 1052.11,-3579.93l0 0.02 0.01 0.01z"/>
 </g>
</svg>
